<svg width="24" height="26" viewBox="0 0 24 26" fill="none" xmlns="http://www.w3.org/2000/svg">
<path d="M6.67986 17.771L21.5755 17.6635L22.5829 5.98535L5.61075 6.07747" stroke="#333333" stroke-width="1.5" stroke-miterlimit="22.9256" stroke-linecap="round" stroke-linejoin="round"/>
<path d="M1 1.27148H2.75523C3.81642 1.27148 4.60001 2.34679 4.68061 3.65489L5.80001 21.5027" stroke="#333333" stroke-width="1.5" stroke-miterlimit="22.9256" stroke-linecap="round" stroke-linejoin="round"/>
<path d="M5.28395 21.7393H18.9922" stroke="#333333" stroke-width="1.5" stroke-miterlimit="22.9256" stroke-linecap="round" stroke-linejoin="round"/>
<path d="M5.45394 25.0735C6.37652 25.0735 7.12443 24.3288 7.12443 23.4103C7.12443 22.4917 6.37652 21.7471 5.45394 21.7471C4.53135 21.7471 3.78345 22.4917 3.78345 23.4103C3.78345 24.3288 4.53135 25.0735 5.45394 25.0735Z" stroke="#333333" stroke-width="1.5" stroke-miterlimit="22.9256" stroke-linecap="round" stroke-linejoin="round"/>
<path d="M18.8536 25.0735C19.7762 25.0735 20.5241 24.3288 20.5241 23.4103C20.5241 22.4917 19.7762 21.7471 18.8536 21.7471C17.931 21.7471 17.1831 22.4917 17.1831 23.4103C17.1831 24.3288 17.931 25.0735 18.8536 25.0735Z" stroke="#333333" stroke-width="1.5" stroke-miterlimit="22.9256" stroke-linecap="round" stroke-linejoin="round"/>
</svg>
