<svg width="24" height="24" viewBox="0 0 24 24" fill="none" xmlns="http://www.w3.org/2000/svg">
<path d="M7.92267 5.46473C0.12097 8.42001 -0.0512389 14.4101 2.382 17.8099C2.78637 19.6653 3.25211 21.3645 3.63696 23.0727H6.69977L7.14459 20.9801C10.3315 22.2576 12.8526 21.8933 15.4992 21.1059L15.8882 23.0505H18.6896L19.7514 18.7832C20.3977 18.0055 21.1604 16.6948 21.3452 16.1459C21.8068 16.0083 22.8386 15.671 22.8386 15.671V11.358L21.592 10.9453C20.9534 9.61595 19.6127 7.97482 18.4999 7.27938V3.81738C17.2303 3.90863 16.0674 4.34899 15.3381 4.95249" stroke="#333333" stroke-width="1.5" stroke-miterlimit="22.9256" stroke-linecap="round" stroke-linejoin="round"/>
<path d="M9.50603 7.91688C8.5181 7.23181 7.92966 6.11122 7.92966 4.91597C7.92966 2.89394 9.58272 1.25488 11.622 1.25488C13.6614 1.25488 15.3144 2.89394 15.3144 4.91597C15.3144 6.18519 14.6514 7.36384 13.5624 8.03094" stroke="#333333" stroke-width="1.5" stroke-miterlimit="22.9256" stroke-linecap="round" stroke-linejoin="round"/>
<path d="M7.55591 8.66438C8.70002 8.0754 10.0693 7.75879 11.4728 7.75879C12.8846 7.75879 14.2602 8.07886 15.4078 8.67337" stroke="#333333" stroke-width="1.5" stroke-miterlimit="22.9256" stroke-linecap="round" stroke-linejoin="round"/>
<path d="M17.9247 12.0165C18.2062 12.0165 18.4344 11.7903 18.4344 11.5112C18.4344 11.2321 18.2062 11.0059 17.9247 11.0059C17.6432 11.0059 17.4151 11.2321 17.4151 11.5112C17.4151 11.7903 17.6432 12.0165 17.9247 12.0165Z" stroke="#333333" stroke-width="1.5" stroke-miterlimit="22.9256" stroke-linecap="round" stroke-linejoin="round"/>
</svg>
